<svg xmlns="http://www.w3.org/2000/svg" width="48" height="48" version="1.1" viewBox="0 0 48 48"><g fill="#BFBFC8"><path d="M28.191 39.953a2.817 2.817 0 0 0 0 5.633 2.82 2.82 0 0 0 2.817-2.816 2.82 2.82 0 0 0-2.817-2.817Zm0 4.024a1.208 1.208 0 0 1 0-2.414 1.21 1.21 0 0 1 1.207 1.207 1.21 1.21 0 0 1-1.207 1.207ZM10.918 17.07l2.844 2.844a.81.81 0 0 0 1.14 0 .811.811 0 0 0 0-1.14l-1.765-1.762a4.034 4.034 0 0 0 0-4.438l3.527-3.531c1.305.871 3.133.871 4.438 0l1.765 1.766a.8.8 0 0 0 1.137 0 .8.8 0 0 0 0-1.137L21.16 6.824l-.57.57c-.91.91-2.5.91-3.414 0l-.57-.57-5.688 5.692.566.57a2.417 2.417 0 0 1 0 3.414ZM34.871 22.816a4.049 4.049 0 0 0 0 4.438l-3.527 3.527c-1.305-.867-3.133-.867-4.438 0l-1.761-1.761a.804.804 0 1 0-1.141 1.136L26.852 33l.566-.566c.914-.914 2.504-.914 3.414 0l.57.566 5.692-5.688-.57-.57a2.417 2.417 0 0 1 0-3.414l.57-.57-2.848-2.844a.806.806 0 0 0-1.137 0 .806.806 0 0 0 0 1.137ZM39.035 25.035a.806.806 0 0 1-1.61 0 .804.804 0 1 1 1.61 0ZM29.93 34.137a.804.804 0 1 1-1.61 0 .806.806 0 0 1 1.61 0ZM19.453 6.258c.313-.317.61-.824.297-1.137a.804.804 0 0 0-1.14 0c-.313.313-.61.824-.294 1.137a.806.806 0 0 0 1.137 0ZM10.586 14.793a.806.806 0 0 1-1.61 0 .804.804 0 1 1 1.61 0Zm0 0"/><path d="M41.469 29.895c0-.707-.117-1.403-.332-2.079l2.781-2.777-3.668-3.71a3.625 3.625 0 0 0 1.219-2.7 3.626 3.626 0 0 0-3.621-3.621c-.149 0-.293.015-.434.031.016-.14.031-.285.031-.434a3.626 3.626 0 0 0-3.62-3.62c-.15 0-.294.015-.434.03.015-.144.03-.285.03-.433a3.626 3.626 0 0 0-3.62-3.621c-.149 0-.293.016-.434.031.016-.144.031-.285.031-.433 0-2.098-1.398-3.622-3.324-3.622-1.054 0-2.117.458-2.851 1.145L19.19 0 4.082 14.785l7.441 7.438a3.601 3.601 0 0 0-.632 2.039 3.62 3.62 0 0 0 1.625 3.015c.046.067.105.13.183.196l8.653 8.62v1.446h-1.61V48h20.922V37.54h-1.61v-2.438a6.777 6.777 0 0 0 2.415-5.207ZM12.5 24.262c0-.528.207-1.008.543-1.367l.121-.11a2.017 2.017 0 0 1 1.348-.535h8.047c1.109 0 2.011.902 2.011 2.012 0 .129-.015.258-.039.379a2.036 2.036 0 0 1-1.789 1.609l-.238.023h-7.992a2.014 2.014 0 0 1-2.012-2.011Zm6.953-8.903a6.45 6.45 0 0 1 9.106 0 6.41 6.41 0 0 1 1.882 4.555 6.394 6.394 0 0 1-1.882 4.55 6.392 6.392 0 0 1-2.899 1.661c.09-.14.164-.293.23-.45l.012-.03c.078-.184.133-.38.18-.575.012-.05.023-.101.031-.156.04-.21.067-.43.067-.652a3.626 3.626 0 0 0-3.621-3.621h-4.946a6.415 6.415 0 0 1 1.84-5.282Zm20.406 3.27c0 .61-.28 1.176-.738 1.55l-2.809-2.84c.376-.448.934-.722 1.536-.722 1.109 0 2.011.903 2.011 2.012Zm-4.023-4.024a2.01 2.01 0 0 1-.715 1.528l-2.809-2.844a2.005 2.005 0 0 1 1.512-.695c1.11 0 2.012.902 2.012 2.011Zm-4.023-4.023a1.99 1.99 0 0 1-.692 1.5l-2.805-2.84a1.992 1.992 0 0 1 1.485-.672c1.11 0 2.012.903 2.012 2.012Zm-5.739-6.035c1.184 0 1.715 1.012 1.715 2.012 0 .574-.254 1.101-.664 1.476l-2.777-2.812c.437-.395 1.093-.676 1.726-.676ZM19.172 2.27l3.14 3.18-.07.16 16.555 16.554.012-.008 2.84 2.875L29.14 37.54h-.028l-9.656-9.656h3.102c.082 0 .16-.02.238-.024.402.059.805.094 1.203.094a8.06 8.06 0 0 0 5.695-2.351 7.99 7.99 0 0 0 2.356-5.688 7.992 7.992 0 0 0-2.356-5.691c-3.136-3.137-8.242-3.137-11.383 0a8.014 8.014 0 0 0-2.316 6.418h-1.484a3.73 3.73 0 0 0-.63.062c-.066.016-.132.027-.198.043a3.343 3.343 0 0 0-.438.137 3.038 3.038 0 0 0-.363.164c-.059.027-.117.055-.176.086l-6.336-6.336Zm3.504 32.843A1.734 1.734 0 0 0 22.53 35l-7.14-7.117h1.789l9.656 9.656H22.96v-2.187Zm-1.324 11.278v-7.243h6.777c.113 0 .223.008.332.016l.664.664.441-.441a4.496 4.496 0 0 1 3.051 4.246v2.758Zm17.703 0h-4.828v-2.758c0-1.774-.77-3.371-1.985-4.485h6.813Zm-7.64-8.852 8.39-8.39a5.182 5.182 0 0 1-2.04 4.922l-.32.242v3.226Zm0 0"/></g></svg>