<svg xmlns="http://www.w3.org/2000/svg" width="48" height="48" version="1.1" viewBox="0 0 48 48"><g fill="#BFBFC8"><path d="M12.523 14.086h22.954v2.09H12.523ZM33.39 17.219h2.087v2.086H33.39ZM12.523 17.219h2.086v2.086h-2.086ZM22.957 7.305h2.086V9.39h-2.086ZM26.086 7.305h2.09V9.39h-2.09ZM19.824 7.305h2.09V9.39h-2.09ZM16.695 7.305h2.086V9.39h-2.086ZM29.219 7.305h2.086V9.39h-2.086Zm0 0"/><path d="M43.074 44.992c-.914.488-1.71.91-3.363.922l6.148-18.453a1.045 1.045 0 0 0-.562-1.281l-5.645-2.543v-10.07a3.137 3.137 0 0 0-3.129-3.133h-1.566V5.219c0-.578-.469-1.043-1.043-1.043h-8.871V0h-2.086v4.176h-8.871c-.574 0-1.043.465-1.043 1.043v5.215h-1.566a3.137 3.137 0 0 0-3.13 3.132v10.07L2.704 26.18c-.488.218-.73.773-.562 1.28l6.148 18.45c-1.652-.008-2.45-.43-3.363-.918-1.024-.547-2.188-1.168-4.403-1.168v2.09c1.696 0 2.497.426 3.422.918C4.97 47.379 6.13 48 8.348 48c.586 0 1.09-.04 1.53-.117 1.282-.203 2.126-.653 2.872-1.051.926-.492 1.727-.918 3.414-.918 1.695 0 2.496.426 3.422.918 1.023.547 2.187 1.168 4.402 1.168 2.219 0 3.38-.621 4.407-1.168.925-.492 1.726-.918 3.421-.918 1.696 0 2.497.426 3.422.918.75.398 1.598.848 2.883 1.05.445.079.945.118 1.531.118 2.22 0 3.38-.621 4.403-1.168.93-.492 1.726-.918 3.422-.918v-2.086c-2.215-.004-3.38.617-4.403 1.164Zm.508-17.297-.75 2.246-17.789-8.175v-2.414ZM15.129 6.262H32.87v4.172H15.13Zm-4.695 7.304c0-.578.468-1.043 1.043-1.043h25.046c.575 0 1.043.465 1.043 1.043V22.7L24.43 16.79a1.032 1.032 0 0 0-.86 0L10.434 22.7Zm-6.016 14.13 18.539-8.344v2.414L5.168 29.94ZM37.605 45.62c-.507-.164-.925-.387-1.386-.633-1.028-.543-2.188-1.164-4.403-1.164-2.218 0-3.378.621-4.406 1.168-.926.496-1.726.922-3.422.922-1.695 0-2.496-.426-3.422-.922-1.023-.547-2.183-1.168-4.402-1.168-2.21 0-3.371.621-4.394 1.164-.457.246-.875.465-1.375.633L5.832 31.93l17.125-7.867v12.46h2.086v-12.46l17.125 7.867Zm0 0"/></g></svg>