<svg xmlns="http://www.w3.org/2000/svg" width="48" height="48" version="1.1" viewBox="0 0 48 48"><g fill="#BFBFC8"><path d="M36.223 13.04a2.19 2.19 0 0 0-1.606-.704H33.5l.133-2.043.164-2.54A6.946 6.946 0 0 0 31.914 2.5 6.942 6.942 0 0 0 26.793.277h-5.586c-1.96 0-3.781.79-5.121 2.223a6.931 6.931 0 0 0-1.883 5.254l.246 3.805.051.777h-1.215a2.19 2.19 0 0 0-1.605.703 2.187 2.187 0 0 0-.567 1.664l.364 4.242a2.164 2.164 0 0 0 1.433 1.867v3.954a.955.955 0 1 0 1.91 0V20.94h.258a8.945 8.945 0 0 0 4.59 6.793A8.97 8.97 0 0 0 24 28.852a8.97 8.97 0 0 0 4.332-1.118 9.002 9.002 0 0 0 3.16-2.902c.66-.07 1.27-.25 1.828-.55 2.766-1.477 3.094-5.184 3.106-5.34l.363-4.239a2.172 2.172 0 0 0-.566-1.664Zm-22.575 5.987a.265.265 0 0 1-.265-.246l-.363-4.242a.265.265 0 0 1 .07-.207.256.256 0 0 1 .195-.086h1.34l.313 4.781ZM16.113 7.63a5.055 5.055 0 0 1 1.367-3.824 5.068 5.068 0 0 1 3.727-1.614h5.586c.121 0 .246.004.367.012l-1.48 3.953c-.242.395-2.414 3.664-9.383 4.317Zm14.95 12.691a7.161 7.161 0 0 1-.68 2.602c-.82-.09-1.758-.395-2.801-.906.031-.164.05-.328.05-.5a2.39 2.39 0 1 0-4.78 0 2.392 2.392 0 0 0 3.59 2.066c.98.504 1.906.86 2.769 1.066a7.093 7.093 0 0 1-1.8 1.41 7.035 7.035 0 0 1-6.821 0 7.05 7.05 0 0 1-3.652-5.738l-.516-7.941c5.387-.492 8.324-2.461 9.77-3.875.386.445.94.851 1.656 1.223.77.398 2.054.816 3.824 1.25Zm-5.34 1.196a.48.48 0 1 1-.959-.006.48.48 0 0 1 .959.006Zm6.164-13.887-.09 1.406c-1.774-.445-2.645-.785-3.074-1.008-1.043-.539-1.278-.984-1.285-1.12.003 0 .003-.005.003-.005v-.004l1.575-4.203c.558.27 1.066.645 1.504 1.11a5.055 5.055 0 0 1 1.367 3.824Zm.71 14.863c.153-.5.262-1.02.325-1.55h.98c-.285.59-.703 1.171-1.304 1.55Zm1.926-3.71a.271.271 0 0 1-.27.245h-1.19l.312-4.78h1.242c.098 0 .164.046.2.085a.28.28 0 0 1 .07.207ZM47.984 46.594l-.925-5.102a14.094 14.094 0 0 0-3.93-7.508 14.158 14.158 0 0 0-10.035-4.156h-2.782c-.253 0-.5.102-.68.281L24 35.746l-5.633-5.637a.964.964 0 0 0-.68-.28h-2.78a14.158 14.158 0 0 0-10.035 4.156 14.094 14.094 0 0 0-3.93 7.507l-.926 5.102a.952.952 0 0 0 .207.785c.18.219.449.344.734.344h46.086a.948.948 0 0 0 .734-.344.952.952 0 0 0 .207-.785Zm-23.308-8.82 6.031-6.032h2.387c.125 0 .25 0 .37.004L24 41.215l-1.383-1.383Zm-9.77-6.032h2.387l5.355 5.356-1.382 1.382-6.73-6.734c.12-.004.245-.004.37-.004ZM2.102 45.81l.718-3.977c.871-4.809 4.586-8.68 9.317-9.773l11.187 11.183a.958.958 0 0 0 1.352 0L35.863 32.06c4.73 1.093 8.446 4.964 9.317 9.773l.718 3.977ZM13.863 26.676a.955.955 0 0 0-.953.957v.383a.955.955 0 1 0 1.91 0v-.383a.956.956 0 0 0-.957-.957Zm0 0"/></g></svg>